# xmcd
#
# Track frame offsets:
#	150
#	13061
#	29904
#	43302
#	54724
#	69380
#	88861
#	132035
#	155752
#	165378
#	177044
#
# Disc length: 2505 seconds
#
# Revision: 1
# Processed by: cddbd v1.5.2PL0 Copyright (c) Steve Scherf et al.
# Submitted via: audiograbber 1.83.01
#
DISCID=9609c70b
DTITLE=King Biscuit Boy with Crowbar - Official Music
DYEAR=1970
DGENRE=Blues
TTITLE0=Highway 61
TTITLE1=Don't Go No Further
TTITLE2=Unseen Eye
TTITLE3=I'm Just A Lonely Guy
TTITLE4=Key To The Highway
TTITLE5=Corrina, Corrina
TTITLE6=Biscuit's Boogie
TTITLE7=Hoy Hoy Hoy
TTITLE8=Badly Bent
TTITLE9=Cookin' Little Baby
TTITLE10=Shout Bama Lama
EXTD=
EXTT0=
EXTT1=
EXTT2=
EXTT3=
EXTT4=
EXTT5=
EXTT6=
EXTT7=
EXTT8=
EXTT9=
EXTT10=
PLAYORDER=
